<svg width="242" height="242" viewBox="0 0 242 242" fill="none" xmlns="http://www.w3.org/2000/svg">
<path d="M12.3228 76.0758C27.4931 54.6412 45.6303 34.6489 66.4595 15.961C85.3624 -1.00857 111.97 -4.7336 134.582 6.16557C162.709 19.7237 190.071 39.741 217.109 62.317C233.344 75.8626 242.401 96.7704 241.156 118.481C239.912 140.192 236.67 164.335 231.825 188.454C225.508 219.885 198.601 242.135 167.961 241.244C134.534 240.278 103.464 237.444 76.9279 231.06C62.4396 227.573 49.6741 218.693 40.6892 206.289C26.512 186.723 14.7276 165.201 5.19233 141.835C-3.67292 120.124 -1.11264 95.0396 12.3109 76.0758H12.3228Z" fill="#FCE8EB"/>
</svg>
