<?xml version="1.0" encoding="utf-8"?>
<svg version="1.0" xmlns="http://www.w3.org/2000/svg" width="824.000000pt" height="854.000000pt" viewBox="16.58 91.879 807.42 711.376" preserveAspectRatio="xMidYMid meet">
  <g transform="translate(0.000000,854.000000) scale(0.100000,-0.100000)" fill="#000000" stroke="none">
    <polygon style="stroke: rgb(0, 0, 0); fill: rgb(255, 215, 0);" points="2502.223 5753.275 3139.619 6421.166 4102.453 6468.204 4730.076 6156.011 4915.754 5872.077 5071.88 6214.293 5908.554 6429.996 6518.104 6188.154 6865.678 5643.599 6834.653 4884.281 6378.344 3814.243 5704.802 3099.903 5142.82 2668.379 4740.731 2586.607 3570.789 2968.444 2785.922 3703.683 2171.015 4896.526 2227.649 5449.383"/>
    <path d="M5865 7523 c-27 -40 -31 -68 -16 -105 5 -13 12 -35 16 -51 7 -33 130 -175 174 -200 l32 -19 -4 89 c-10 201 -64 323 -144 323 -26 0 -37 -7 -58 -37z" style="fill: rgb(216, 85, 85);"/>
    <path d="M5493 7188 c-32 -35 -39 -92 -17 -134 32 -61 158 -106 356 -129 56 -6 58 -6 50 14 -13 36 -95 141 -131 170 -62 48 -168 101 -204 101 -22 0 -41 -8 -54 -22z" style="fill: rgb(216, 85, 85);"/>
    <path d="M7425 6043 c-22 -2 -44 -8 -48 -12 -13 -13 93 -78 163 -101 36 -11 90 -23 120 -27 l55 -5 17 36 17 35 -32 24 c-18 13 -48 28 -67 35 -41 13 -167 22 -225 15z" style="fill: rgb(216, 85, 85);"/>
    <path d="M7190 5816 c-5 -15 -5 -50 2 -93 19 -116 122 -253 192 -253 19 0 45 9 58 20 23 18 25 23 17 64 -14 75 -77 158 -185 242 -57 45 -73 48 -84 20z" style="fill: rgb(216, 85, 85);"/>
    <path d="M1205 4301 c-68 -28 -74 -117 -12 -179 19 -19 59 -43 88 -54 150 -55 366 -91 388 -64 18 22 -100 126 -240 211 -9 6 -28 18 -42 28 -19 14 -155 70 -161 66 -1 0 -10 -4 -21 -8z" style="fill: rgb(216, 85, 85);"/>
    <path d="M2741 2434 c-11 -31 -21 -66 -21 -78 0 -12 -4 -26 -9 -31 -18 -20 -42 -143 -53 -274 -11 -134 -11 -134 11 -153 46 -37 76 -22 116 56 18 36 20 60 20 271 0 182 -3 235 -14 248 -21 26 -27 21 -50 -39z" style="fill: rgb(216, 85, 85);"/>
    <path d="M 5161.86 2556.91 C 5267.86 2607.91 4718.82 2428.91 4718.82 2427.91 C 4719.82 2427.91 4723.82 2352.91 4727.82 2261.91 C 4741.82 1978.91 4755.82 1778.91 4767.82 1708.91 C 4774.82 1671.91 4776.82 1626.88 4773.82 1607.88 C 4767.82 1575.88 4765.82 1574.88 4705.82 1567.88 C 4672.82 1564.88 4610.82 1561.88 4568.82 1560.88 C 4526.82 1560.88 4465.82 1555.88 4432.82 1551.88 C 4399.82 1546.88 4309.82 1537.88 4232.82 1531.88 C 4155.82 1525.88 4088.82 1516.88 4082.82 1512.88 C 4077.82 1507.88 4036.82 1501.88 3993.82 1497.88 C 3950.82 1494.88 3909.82 1487.88 3903.82 1482.88 C 3897.82 1477.88 3870.82 1470.88 3842.82 1466.88 C 3815.82 1462.88 3788.82 1456.88 3782.82 1451.88 C 3777.82 1447.88 3745.82 1434.88 3712.82 1423.88 C 3679.82 1412.88 3636.82 1395.88 3617.82 1385.88 C 3537.82 1346.88 3417.82 1250.88 3417.82 1226.88 C 3417.82 1219.88 3408.82 1206.88 3397.82 1196.88 C 3387.82 1187.88 3371.82 1155.88 3362.82 1126.88 C 3345.82 1067.88 3342.82 935.881 3357.82 926.881 C 3362.82 923.881 3367.82 910.881 3367.82 898.881 C 3368.82 867.881 3444.82 787.881 3502.82 755.881 C 3563.82 723.881 3730.82 667.881 3812.82 653.881 C 3915.82 634.881 4197.82 603.881 4317.82 597.881 C 4380.82 593.881 4495.82 586.881 4572.82 581.881 C 4751.82 569.881 5059.82 569.881 5257.86 581.881 C 5520.86 597.881 5698.86 610.881 5706.86 615.881 C 5710.86 618.881 5756.86 625.881 5808.86 632.881 C 5860.86 638.881 5907.86 646.881 5912.86 651.881 C 5918.86 655.881 5952.86 662.881 5989.86 666.881 C 6026.86 669.881 6059.86 677.881 6062.86 682.881 C 6066.86 687.881 6078.86 691.881 6090.86 691.881 C 6102.86 691.881 6123.86 697.881 6137.86 704.881 C 6151.86 711.881 6185.86 725.881 6212.86 735.881 C 6269.86 757.881 6362.86 817.881 6392.86 852.881 C 6451.86 921.881 6487.86 1039.88 6487.86 1166.88 C 6487.86 1239.88 6484.86 1254.88 6451.86 1316.88 C 6415.86 1388.88 6334.86 1481.88 6308.86 1481.88 C 6300.86 1481.88 6286.86 1487.88 6278.86 1494.88 C 6269.86 1501.88 6242.86 1513.88 6217.86 1520.88 C 6192.86 1527.88 6161.86 1538.88 6147.86 1544.88 C 6091.86 1567.88 5876.86 1582.88 5485.86 1588.88 C 5204.86 1592.88 5074.82 1597.88 5068.82 1605.88 C 5053.82 1624.88 5037.82 1944.91 5037.82 2218.91 C 5037.82 2519.91 5026.82 2490.91 5161.86 2556.91 Z" style="fill: rgb(216, 85, 85);"/>
    <path d="M 4569.59 2420.54 C 4639.59 2413.54 3943.59 2516.54 4046.59 2495.54 C 4151.59 2474.54 4166.59 2465.54 4166.59 2430.54 C 4166.59 2378.54 4197.59 2176.54 4207.59 2166.54 C 4212.59 2160.54 4216.59 2144.54 4216.59 2129.54 C 4216.59 2113.54 4226.59 2089.54 4239.59 2074.54 C 4283.59 2023.54 4353.59 2050.54 4380.59 2130.54 C 4401.59 2194.54 4416.59 2285.54 4416.59 2345.54 C 4416.59 2432.54 4421.59 2434.54 4569.59 2420.54 Z" style="fill: rgb(216, 85, 85);"/>
    <path d="M 7421 7359 C 7364 7355 7310 7348 7301 7344 C 7292 7340 7247 7331 7200 7324 C 7056 7302 6985 7288 6975 7280 C 6970 7276 6941 7269 6913 7265 C 6884 7261 6858 7254 6854 7249 C 6851 7244 6839 7240 6827 7240 C 6815 7240 6792 7233 6776 7225 C 6761 7217 6738 7210 6726 7210 C 6714 7210 6696 7204 6685 7196 C 6674 7189 6643 7180 6616 7176 C 6589 7172 6560 7164 6551 7160 C 6542 7155 6517 7143 6495 7134 C 6400 7092 6360 7039 6360 6952 C 6360 6907 6361 6905 6490 6777 C 6562 6705 6620 6641 6620 6634 C 6620 6628 6609 6615 6595 6606 C 6582 6597 6530 6556 6481 6515 C 6419 6464 6382 6440 6364 6440 C 6350 6440 6306 6456 6267 6476 C 6227 6496 6169 6518 6138 6526 C 6106 6534 6052 6548 6018 6557 C 5967 6572 5914 6575 5738 6575 C 5580 6574 5517 6571 5508 6562 C 5501 6555 5487 6550 5476 6550 C 5445 6550 5338 6514 5232 6468 C 5168 6440 4993 6318 4926 6256 L 4868 6200 L 4841 6219 C 4827 6229 4806 6247 4796 6259 C 4785 6271 4773 6280 4767 6280 C 4762 6280 4742 6294 4723 6310 C 4705 6327 4684 6340 4678 6340 C 4671 6340 4657 6349 4646 6359 C 4617 6385 4511 6440 4490 6440 C 4480 6440 4467 6447 4460 6455 C 4453 6463 4441 6470 4433 6470 C 4425 6470 4396 6481 4368 6495 C 4341 6509 4312 6520 4305 6520 C 4297 6520 4276 6526 4258 6534 C 4240 6542 4182 6561 4130 6575 C 4078 6590 4013 6608 3985 6616 C 3895 6642 3627 6655 3438 6642 C 3344 6636 3263 6627 3257 6621 C 3251 6615 3230 6610 3210 6610 C 3191 6610 3163 6604 3149 6596 C 3135 6589 3101 6579 3074 6575 C 3047 6571 3021 6565 3015 6560 C 3010 6556 2978 6543 2945 6532 C 2874 6508 2673 6406 2580 6348 C 2438 6260 2218 6060 2157 5964 C 2144 5942 2123 5916 2111 5906 C 2100 5895 2090 5881 2090 5874 C 2090 5867 2080 5849 2067 5833 C 2055 5818 2039 5794 2032 5780 C 2025 5766 2009 5736 1996 5712 C 1982 5689 1968 5655 1965 5637 C 1961 5620 1954 5601 1950 5595 C 1946 5590 1939 5569 1935 5550 C 1931 5531 1924 5511 1920 5505 C 1909 5490 1881 5367 1869 5280 C 1852 5159 1847 4971 1859 4895 C 1865 4857 1875 4782 1880 4730 C 1886 4678 1895 4631 1900 4626 C 1906 4620 1910 4600 1910 4581 C 1910 4561 1916 4533 1924 4518 C 1932 4504 1941 4469 1945 4441 C 1949 4413 1956 4388 1961 4384 C 1966 4381 1970 4369 1970 4357 C 1970 4345 1977 4322 1985 4306 C 1993 4291 2000 4270 2000 4261 C 2000 4252 2007 4232 2015 4216 C 2023 4201 2030 4181 2030 4172 C 2030 4164 2043 4129 2058 4096 C 2074 4062 2095 4015 2105 3990 C 2151 3871 2186 3813 2307 3652 C 2342 3605 2366 3562 2363 3554 C 2360 3547 2326 3516 2286 3486 C 2246 3456 2208 3425 2201 3416 C 2173 3383 2127 3378 2059 3401 C 2024 3413 1970 3429 1940 3436 C 1910 3443 1865 3453 1840 3459 C 1815 3465 1779 3474 1760 3479 C 1741 3485 1689 3496 1645 3506 C 1601 3515 1545 3528 1520 3535 C 1455 3554 1363 3562 1296 3554 C 1251 3549 1228 3539 1196 3514 C 1174 3495 1137 3468 1115 3454 C 1071 3424 816 3205 785 3170 C 774 3157 727 3116 680 3077 C 567 2984 301 2717 263 2659 C 246 2634 227 2590 221 2563 C 210 2518 211 2509 228 2480 C 264 2422 293 2410 401 2410 C 453 2410 566 2403 651 2395 C 736 2387 823 2379 844 2378 C 866 2376 885 2369 888 2362 C 890 2355 854 2310 808 2262 C 714 2165 680 2109 680 2050 C 680 2015 685 2007 712 1990 C 748 1968 771 1965 798 1979 C 807 1983 837 1998 864 2011 C 891 2024 950 2070 994 2112 C 1048 2164 1083 2189 1099 2190 L 1123 2190 L 1114 2063 C 1109 1992 1105 1865 1105 1780 C 1105 1642 1108 1621 1126 1590 C 1153 1544 1186 1533 1231 1553 C 1250 1561 1277 1571 1291 1574 C 1319 1580 1460 1662 1578 1742 C 1661 1798 1889 1968 1905 1986 C 1911 1992 1925 2004 1937 2012 C 1949 2020 1982 2046 2009 2071 C 2036 2095 2075 2129 2095 2145 C 2169 2205 2240 2273 2240 2283 C 2240 2289 2251 2306 2265 2320 C 2279 2335 2299 2371 2309 2401 C 2327 2451 2328 2480 2324 2795 C 2322 2982 2317 3147 2314 3162 C 2308 3191 2320 3206 2413 3283 C 2434 3301 2465 3327 2483 3343 C 2500 3358 2516 3370 2520 3370 C 2523 3370 2556 3342 2591 3308 C 2679 3223 2789 3130 2802 3130 C 2807 3130 2835 3110 2863 3085 C 2892 3060 2919 3040 2924 3040 C 2928 3040 2948 3027 2967 3010 C 2985 2994 3007 2980 3014 2980 C 3021 2980 3035 2971 3046 2959 C 3056 2947 3078 2931 3093 2923 C 3109 2915 3138 2894 3158 2876 C 3178 2858 3220 2831 3251 2816 C 3283 2801 3314 2783 3321 2774 C 3334 2758 3568 2640 3586 2640 C 3592 2640 3641 2623 3696 2601 C 3804 2559 3947 2516 4050 2495 C 4155 2474 4170 2465 4170 2430 C 4170 2378 4425 2434 4573 2420 C 4643 2413 4701 2407 4701 2406 C 4702 2406 5009 2469 5144 2535 C 5250 2586 5471 2728 5556 2799 C 5573 2813 5598 2834 5611 2845 C 5624 2856 5653 2878 5675 2894 C 5697 2910 5720 2928 5726 2934 C 5732 2940 5756 2961 5780 2980 C 5862 3047 5914 3096 6059 3241 C 6211 3393 6260 3447 6260 3463 C 6260 3469 6276 3489 6296 3508 C 6316 3527 6347 3566 6365 3594 C 6383 3622 6407 3656 6419 3669 C 6431 3682 6440 3699 6440 3707 C 6440 3714 6447 3723 6455 3726 C 6463 3729 6479 3752 6490 3776 C 6502 3800 6515 3820 6520 3820 C 6524 3820 6536 3837 6547 3858 C 6557 3878 6583 3921 6603 3952 C 6624 3984 6645 4021 6650 4035 C 6655 4049 6664 4060 6669 4060 C 6674 4060 6695 4094 6715 4135 C 6736 4176 6756 4210 6761 4210 C 6766 4210 6773 4222 6776 4238 C 6780 4253 6805 4311 6831 4366 C 6858 4422 6880 4472 6880 4478 C 6880 4483 6896 4534 6915 4591 C 6934 4649 6957 4745 6966 4810 C 6974 4873 6986 4941 6991 4960 C 7011 5031 6985 5529 6960 5554 C 6955 5559 6950 5574 6950 5585 C 6950 5617 6913 5751 6901 5763 C 6895 5769 6890 5786 6890 5800 C 6890 5814 6883 5835 6875 5846 C 6867 5856 6860 5874 6860 5885 C 6860 5905 6844 5940 6804 6006 C 6793 6024 6771 6062 6753 6091 C 6735 6121 6692 6174 6656 6210 C 6619 6245 6590 6280 6590 6286 C 6590 6293 6611 6316 6636 6337 C 6661 6358 6703 6396 6729 6421 C 6783 6475 6811 6487 6831 6464 C 6838 6455 6867 6433 6895 6415 C 6922 6397 6958 6368 6975 6351 C 7008 6315 7079 6280 7117 6280 C 7140 6280 7191 6309 7215 6335 C 7221 6341 7242 6358 7262 6374 C 7283 6389 7303 6412 7306 6426 C 7309 6439 7318 6454 7324 6458 C 7331 6462 7350 6492 7367 6525 C 7384 6558 7423 6632 7454 6690 C 7484 6748 7514 6805 7520 6818 C 7525 6831 7537 6848 7545 6856 C 7553 6865 7560 6878 7560 6887 C 7560 6895 7576 6934 7596 6973 C 7686 7153 7682 7326 7588 7359 C 7571 7365 7550 7369 7541 7369 C 7532 7368 7478 7364 7421 7359 Z M 3975 6325 C 4182 6276 4508 6136 4600 6057 C 4625 6035 4655 6014 4667 6009 C 4698 5997 4774 5898 4816 5813 C 4875 5693 4948 5650 5009 5700 C 5035 5722 5051 5776 5039 5805 C 5035 5816 5031 5846 5031 5871 C 5030 5896 5023 5925 5015 5936 C 5007 5946 5000 5963 5000 5972 C 5000 5997 5061 6062 5135 6114 C 5202 6163 5365 6250 5388 6250 C 5396 6250 5416 6257 5433 6265 C 5513 6302 5723 6319 5854 6300 C 5996 6279 6024 6273 6050 6262 C 6064 6256 6087 6249 6101 6246 C 6146 6236 6143 6206 6092 6163 C 6017 6100 5990 6055 5990 5995 C 5990 5920 6016 5890 6078 5890 C 6104 5890 6134 5897 6145 5906 C 6195 5944 6238 5979 6296 6033 C 6331 6064 6368 6090 6378 6090 C 6397 6090 6507 5982 6556 5915 C 6615 5834 6669 5705 6724 5510 C 6758 5387 6768 5050 6742 4897 C 6722 4785 6679 4633 6659 4605 C 6656 4600 6649 4581 6645 4563 C 6636 4517 6485 4217 6460 4195 C 6449 4185 6440 4171 6440 4164 C 6440 4157 6427 4135 6410 4117 C 6394 4098 6380 4077 6380 4072 C 6380 4066 6367 4045 6350 4027 C 6334 4008 6320 3987 6320 3982 C 6320 3976 6307 3955 6290 3937 C 6274 3918 6260 3898 6260 3893 C 6260 3882 6180 3776 6121 3709 C 6098 3684 6080 3658 6080 3653 C 6080 3636 5803 3354 5721 3287 C 5679 3253 5619 3203 5588 3175 C 5502 3100 5463 3070 5452 3070 C 5447 3070 5437 3064 5431 3056 C 5406 3026 5189 2891 5080 2838 C 5017 2807 4950 2770 4931 2756 C 4881 2719 4849 2715 4798 2740 C 4774 2752 4742 2766 4725 2770 C 4618 2800 4127 3033 4099 3067 C 4092 3075 4062 3093 4031 3108 C 4000 3122 3960 3147 3942 3162 C 3924 3177 3903 3190 3896 3190 C 3888 3190 3876 3197 3869 3206 C 3861 3215 3838 3234 3816 3247 C 3748 3291 3429 3582 3304 3716 C 3085 3950 3013 4036 2940 4146 C 2900 4206 2859 4267 2849 4282 C 2793 4363 2667 4620 2655 4677 C 2651 4695 2644 4712 2639 4715 C 2634 4719 2630 4737 2630 4757 C 2630 4776 2624 4806 2616 4823 C 2597 4865 2579 5077 2586 5176 C 2595 5305 2629 5469 2661 5533 C 2677 5564 2690 5596 2690 5604 C 2690 5611 2699 5629 2710 5643 C 2721 5657 2730 5674 2730 5680 C 2730 5687 2741 5705 2755 5722 C 2769 5738 2780 5760 2780 5770 C 2780 5779 2787 5793 2795 5800 C 2803 5807 2810 5820 2810 5829 C 2810 5838 2831 5867 2855 5893 C 2880 5920 2900 5946 2900 5952 C 2900 5967 3014 6077 3085 6130 C 3161 6187 3267 6250 3289 6250 C 3298 6251 3323 6259 3345 6270 C 3367 6281 3395 6289 3407 6290 C 3419 6290 3431 6294 3435 6299 C 3438 6304 3466 6312 3498 6316 C 3529 6319 3562 6326 3570 6331 C 3596 6345 3908 6341 3975 6325 Z M 1399 3260 C 1430 3255 1527 3237 1615 3221 C 1703 3204 1796 3188 1823 3185 C 1860 3180 1870 3175 1870 3160 C 1870 3149 1858 3134 1841 3125 C 1825 3117 1791 3093 1766 3073 C 1722 3035 1698 3018 1573 2929 C 1512 2885 1506 2884 1474 2895 C 1456 2901 1432 2914 1422 2923 C 1412 2932 1375 2949 1339 2961 C 1304 2973 1270 2986 1264 2991 C 1258 2996 1226 3009 1193 3020 C 1096 3052 1038 3079 1045 3090 C 1049 3096 1086 3124 1128 3152 C 1170 3180 1210 3209 1215 3216 C 1233 3238 1294 3270 1319 3270 C 1333 3270 1369 3266 1399 3260 Z M 2118 2752 L 2120 2498 L 2048 2418 C 1924 2281 1842 2200 1825 2200 C 1817 2200 1806 2210 1801 2223 C 1782 2269 1760 2349 1760 2370 C 1760 2382 1754 2406 1747 2423 C 1724 2477 1701 2553 1694 2598 C 1690 2621 1683 2643 1679 2646 C 1674 2649 1670 2664 1670 2681 C 1670 2704 1679 2716 1713 2740 C 1736 2757 1764 2778 1775 2788 C 1786 2798 1818 2822 1845 2840 C 1873 2859 1900 2879 1905 2886 C 1911 2892 1936 2912 1963 2929 C 1989 2947 2022 2972 2037 2986 C 2054 3002 2073 3010 2089 3008 L 2115 3005 L 2118 2752 Z" style="fill: rgb(224, 49, 26);"/>
  </g>
</svg>